{
  "accessors": [
    {
      "bufferView": 2,
      "componentType": 5126,
      "count": 41948,
      "max": [
        10.22600269317627,
        6.451602458953857,
        13.378968238830566
      ],
      "min": [
        -9.941279411315918,
        -4.004499435424805,
        0.556358814239502
      ],
      "type": "VEC3"
    },
    {
      "bufferView": 2,
      "byteOffset": 503376,
      "componentType": 5126,
      "count": 41948,
      "max": [
        0.9999716281890869,
        0.9999906420707703,
        0.9999994039535522
      ],
      "min": [
        -0.9999986886978149,
        -0.9999990463256836,
        -0.9999998807907104
      ],
      "type": "VEC3"
    },
    {
      "bufferView": 1,
      "componentType": 5126,
      "count": 41948,
      "max": [
        0.9997485280036926,
        0.9997557401657104
      ],
      "min": [
        0.000244140625,
        0.00025041832122951746
      ],
      "type": "VEC2"
    },
    {
      "bufferView": 1,
      "byteOffset": 335584,
      "componentType": 5126,
      "count": 41948,
      "max": [
        0.9997485280036926,
        0.9997557401657104
      ],
      "min": [
        0.000244140625,
        0.00025041832122951746
      ],
      "type": "VEC2"
    },
    {
      "bufferView": 0,
      "componentType": 5125,
      "count": 119814,
      "type": "SCALAR"
    },
    {
      "bufferView": 2,
      "byteOffset": 1006752,
      "componentType": 5126,
      "count": 24194,
      "max": [
        10.213417053222656,
        6.481420040130615,
        12.378273010253906
      ],
      "min": [
        -9.936650276184082,
        -3.96264910697937,
        0.559354841709137
      ],
      "type": "VEC3"
    },
    {
      "bufferView": 2,
      "byteOffset": 1297080,
      "componentType": 5126,
      "count": 24194,
      "max": [
        0.9999857544898987,
        0.9999995231628418,
        0.9999982714653015
      ],
      "min": [
        -0.9999743103981018,
        -0.9999997019767761,
        -0.9999997615814209
      ],
      "type": "VEC3"
    },
    {
      "bufferView": 1,
      "byteOffset": 671168,
      "componentType": 5126,
      "count": 24194,
      "max": [
        1.9996992349624634,
        0.9987791776657104
      ],
      "min": [
        1.000244140625,
        0.0002622796455398202
      ],
      "type": "VEC2"
    },
    {
      "bufferView": 1,
      "byteOffset": 864720,
      "componentType": 5126,
      "count": 24194,
      "max": [
        1.9996992349624634,
        0.9987791776657104
      ],
      "min": [
        1.000244140625,
        0.0002622796455398202
      ],
      "type": "VEC2"
    },
    {
      "bufferView": 0,
      "byteOffset": 479256,
      "componentType": 5125,
      "count": 87087,
      "type": "SCALAR"
    }
  ],
  "asset": {
    "extras": {
      "author": "Оrрндп ЯТG (https://sketchfab.com/orphanrtg)",
      "license": "CC-BY-4.0 (http://creativecommons.org/licenses/by/4.0/)",
      "source": "https://sketchfab.com/3d-models/komatsu-sk820-skid-steer-loader-9d16f3d8b3b0456e86db243376b2a390",
      "title": "Komatsu SK820 Skid Steer Loader"
    },
    "generator": "Sketchfab-16.14.0",
    "version": "2.0"
  },
  "bufferViews": [
    {
      "buffer": 0,
      "byteLength": 827604,
      "name": "floatBufferViews",
      "target": 34963
    },
    {
      "buffer": 0,
      "byteLength": 1058272,
      "byteOffset": 827604,
      "byteStride": 8,
      "name": "floatBufferViews",
      "target": 34962
    },
    {
      "buffer": 0,
      "byteLength": 1587408,
      "byteOffset": 1885876,
      "byteStride": 12,
      "name": "floatBufferViews",
      "target": 34962
    }
  ],
  "buffers": [
    {
      "byteLength": 3473284,
      "uri": "scene.bin"
    }
  ],
  "extensionsUsed": [
    "KHR_materials_unlit"
  ],
  "images": [
    {
      "uri": "textures/Buldo_TT_u1_v1_baseColor.jpeg"
    },
    {
      "uri": "textures/Buldo_TT_u2_v1_baseColor.jpeg"
    }
  ],
  "materials": [
    {
      "doubleSided": true,
      "extensions": {
        "KHR_materials_unlit": {}
      },
      "name": "Buldo_TT_u1_v1",
      "pbrMetallicRoughness": {
        "baseColorTexture": {
          "index": 0
        },
        "metallicFactor": 0.0
      }
    },
    {
      "doubleSided": true,
      "extensions": {
        "KHR_materials_unlit": {}
      },
      "name": "Buldo_TT_u2_v1",
      "pbrMetallicRoughness": {
        "baseColorTexture": {
          "index": 1
        },
        "metallicFactor": 0.0
      }
    }
  ],
  "meshes": [
    {
      "name": "Buldo_TT_Buldo_TT_u1_v1_0",
      "primitives": [
        {
          "attributes": {
            "NORMAL": 1,
            "POSITION": 0,
            "TEXCOORD_0": 2,
            "TEXCOORD_1": 3
          },
          "indices": 4,
          "material": 0,
          "mode": 4
        }
      ]
    },
    {
      "name": "Buldo_TT_Buldo_TT_u2_v1_0",
      "primitives": [
        {
          "attributes": {
            "NORMAL": 6,
            "POSITION": 5,
            "TEXCOORD_0": 7,
            "TEXCOORD_1": 8
          },
          "indices": 9,
          "material": 1,
          "mode": 4
        }
      ]
    }
  ],
  "nodes": [
    {
      "children": [
        1
      ],
      "matrix": [
        0.18091918528079987,
        0.0,
        0.0,
        0.0,
        0.0,
        4.0172129019033746e-17,
        -0.18091918528079987,
        0.0,
        0.0,
        0.18091918528079987,
        4.0172129019033746e-17,
        0.0,
        0.0,
        0.0,
        0.0,
        1.0
      ],
      "name": "Sketchfab_model"
    },
    {
      "children": [
        2
      ],
      "matrix": [
        1.0,
        0.0,
        0.0,
        0.0,
        0.0,
        0.0,
        1.0,
        0.0,
        0.0,
        -1.0,
        0.0,
        0.0,
        0.0,
        0.0,
        0.0,
        1.0
      ],
      "name": "cfcc855ed1764b28bb7abe618d76c6a0.fbx"
    },
    {
      "children": [
        3
      ],
      "name": "RootNode"
    },
    {
      "children": [
        4,
        5
      ],
      "matrix": [
        1.0,
        0.0,
        0.0,
        0.0,
        0.0,
        2.220446049250313e-16,
        -1.0,
        0.0,
        0.0,
        1.0,
        2.220446049250313e-16,
        0.0,
        0.0,
        0.0,
        0.0,
        1.0
      ],
      "name": "Buldo_TT"
    },
    {
      "mesh": 0,
      "name": "Buldo_TT_Buldo_TT_u1_v1_0"
    },
    {
      "mesh": 1,
      "name": "Buldo_TT_Buldo_TT_u2_v1_0"
    }
  ],
  "samplers": [
    {
      "magFilter": 9729,
      "minFilter": 9987,
      "wrapS": 10497,
      "wrapT": 10497
    }
  ],
  "scene": 0,
  "scenes": [
    {
      "name": "Sketchfab_Scene",
      "nodes": [
        0
      ]
    }
  ],
  "textures": [
    {
      "sampler": 0,
      "source": 0
    },
    {
      "sampler": 0,
      "source": 1
    }
  ]
}
